<svg xmlns="http://www.w3.org/2000/svg" viewBox="0 0 1500 900" width="1500" height="900" font-family="ui-monospace,monospace">
<defs><radialGradient id="g" cx="50%" cy="45%" r="60%"><stop offset="0%" stop-color="#36322b" stop-opacity="0.6"/><stop offset="60%" stop-color="#36322b" stop-opacity="0.14"/><stop offset="100%" stop-color="#000" stop-opacity="0"/></radialGradient></defs>
<rect width="1500" height="900" fill="#04060a"/><rect width="1500" height="900" fill="url(#g)"/>
<text x="40" y="46" fill="#d7ecd9" font-size="21" letter-spacing="2">THE MOSS, AFTER 10^200 YEARS - jumped in one step by the matrix cheat</text>
<text x="40" y="72" fill="#8fe0a0" font-size="14">its identity did not change: moss root c11dbcf295a8dee17e308e49... - an identity cannot be violated</text>
<circle cx="446" cy="475" r="2" fill="#b40a5e" opacity="0.55"/><circle cx="300" cy="443" r="2" fill="#8b572f" opacity="0.55"/><circle cx="663" cy="412" r="2" fill="#f27f6b" opacity="0.55"/><circle cx="327" cy="679" r="1" fill="#56f121" opacity="0.55"/><circle cx="661" cy="451" r="1" fill="#f96f7d" opacity="0.55"/><circle cx="625" cy="608" r="1" fill="#18d645" opacity="0.55"/><circle cx="494" cy="560" r="2" fill="#2a022a" opacity="0.55"/><circle cx="540" cy="212" r="2" fill="#cd184a" opacity="0.55"/><circle cx="399" cy="530" r="2" fill="#62c89a" opacity="0.55"/><circle cx="392" cy="578" r="1" fill="#56a3e7" opacity="0.55"/><circle cx="468" cy="442" r="1" fill="#d0c815" opacity="0.55"/><circle cx="671" cy="529" r="1" fill="#07f5b6" opacity="0.55"/><circle cx="369" cy="394" r="2" fill="#a2952d" opacity="0.55"/><circle cx="302" cy="580" r="1" fill="#68dcfe" opacity="0.55"/><circle cx="550" cy="673" r="1" fill="#2c0da3" opacity="0.55"/><circle cx="473" cy="423" r="1" fill="#ce8361" opacity="0.55"/><circle cx="315" cy="443" r="2" fill="#8c9c2e" opacity="0.55"/><circle cx="291" cy="489" r="1" fill="#7f06c5" opacity="0.55"/><circle cx="167" cy="414" r="2" fill="#8a1b82" opacity="0.55"/><circle cx="496" cy="257" r="1" fill="#c82b0e" opacity="0.55"/><circle cx="433" cy="508" r="1" fill="#5a145f" opacity="0.55"/><circle cx="464" cy="414" r="2" fill="#c84717" opacity="0.55"/><circle cx="540" cy="425" r="1" fill="#e81de7" opacity="0.55"/><circle cx="252" cy="593" r="1" fill="#6bcdc9" opacity="0.55"/><circle cx="483" cy="750" r="2" fill="#3ae6de" opacity="0.55"/><circle cx="452" cy="491" r="2" fill="#314c5e" opacity="0.55"/><circle cx="451" cy="488" r="1" fill="#2908f3" opacity="0.55"/><circle cx="523" cy="527" r="1" fill="#14e363" opacity="0.55"/><circle cx="593" cy="439" r="2" fill="#f35f2e" opacity="0.55"/><circle cx="465" cy="665" r="1" fill="#3c69ff" opacity="0.55"/><circle cx="413" cy="647" r="2" fill="#48fe2f" opacity="0.55"/><circle cx="340" cy="506" r="1" fill="#786d51" opacity="0.55"/><circle cx="545" cy="631" r="2" fill="#287443" opacity="0.55"/><circle cx="709" cy="582" r="2" fill="#0e7249" opacity="0.55"/><circle cx="285" cy="620" r="1" fill="#6408a3" opacity="0.55"/><circle cx="504" cy="404" r="1" fill="#d7ca18" opacity="0.55"/><circle cx="421" cy="500" r="1" fill="#6c6f72" opacity="0.55"/><circle cx="450" cy="486" r="2" fill="#fd89ce" opacity="0.55"/><circle cx="680" cy="550" r="2" fill="#0b1934" opacity="0.55"/><circle cx="473" cy="519" r="2" fill="#26ef15" opacity="0.55"/><circle cx="372" cy="478" r="2" fill="#84253d" opacity="0.55"/><circle cx="428" cy="248" r="1" fill="#bc5cb7" opacity="0.55"/><circle cx="474" cy="436" r="2" fill="#d2dc4e" opacity="0.55"/><circle cx="443" cy="488" r="1" fill="#7397a9" opacity="0.55"/><circle cx="440" cy="512" r="1" fill="#4eb34c" opacity="0.55"/><circle cx="427" cy="443" r="1" fill="#ac0e28" opacity="0.55"/><circle cx="409" cy="479" r="1" fill="#86d4ab" opacity="0.55"/><circle cx="732" cy="559" r="2" fill="#0a6e95" opacity="0.55"/><circle cx="458" cy="474" r="2" fill="#daf584" opacity="0.55"/><circle cx="191" cy="381" r="1" fill="#8f92a7" opacity="0.55"/><circle cx="352" cy="630" r="2" fill="#58311d" opacity="0.55"/><circle cx="486" cy="626" r="2" fill="#35aac4" opacity="0.55"/><circle cx="622" cy="502" r="2" fill="#03e643" opacity="0.55"/><circle cx="449" cy="308" r="2" fill="#bfe8b3" opacity="0.55"/><circle cx="486" cy="743" r="2" fill="#3a425b" opacity="0.55"/><circle cx="413" cy="497" r="2" fill="#73ab02" opacity="0.55"/><circle cx="453" cy="511" r="2" fill="#3a22e2" opacity="0.55"/><circle cx="662" cy="669" r="2" fill="#1d05df" opacity="0.55"/><circle cx="578" cy="354" r="2" fill="#df85ec" opacity="0.55"/><circle cx="479" cy="540" r="2" fill="#2b74e4" opacity="0.55"/><circle cx="301" cy="464" r="2" fill="#85cc67" opacity="0.55"/><circle cx="626" cy="604" r="2" fill="#181045" opacity="0.55"/><circle cx="673" cy="463" r="1" fill="#fbe746" opacity="0.55"/><circle cx="349" cy="388" r="1" fill="#9f3b08" opacity="0.55"/><circle cx="542" cy="627" r="2" fill="#286268" opacity="0.55"/><circle cx="282" cy="257" r="1" fill="#a64649" opacity="0.55"/><circle cx="491" cy="506" r="2" fill="#130c28" opacity="0.55"/><circle cx="519" cy="394" r="2" fill="#da388a" opacity="0.55"/><circle cx="508" cy="550" r="2" fill="#21ef63" opacity="0.55"/><circle cx="217" cy="588" r="1" fill="#6f16de" opacity="0.55"/><circle cx="528" cy="697" r="2" fill="#31846b" opacity="0.55"/><circle cx="485" cy="394" r="2" fill="#cf0fd4" opacity="0.55"/><circle cx="475" cy="470" r="2" fill="#e94301" opacity="0.55"/><circle cx="487" cy="725" r="1" fill="#39a26c" opacity="0.55"/><circle cx="393" cy="409" r="2" fill="#a60605" opacity="0.55"/><circle cx="528" cy="502" r="1" fill="#084017" opacity="0.55"/><circle cx="476" cy="344" r="2" fill="#c76b54" opacity="0.55"/><circle cx="695" cy="450" r="2" fill="#fa2080" opacity="0.55"/><circle cx="641" cy="576" r="2" fill="#11dfc8" opacity="0.55"/><circle cx="457" cy="761" r="1" fill="#3ed349" opacity="0.55"/><circle cx="456" cy="478" r="1" fill="#dab3ce" opacity="0.55"/><circle cx="266" cy="428" r="2" fill="#8c7131" opacity="0.55"/><circle cx="355" cy="385" r="2" fill="#a144e9" opacity="0.55"/><circle cx="398" cy="421" r="2" fill="#a48505" opacity="0.55"/><circle cx="323" cy="222" r="2" fill="#adc8a8" opacity="0.55"/><circle cx="448" cy="435" r="2" fill="#beb6d1" opacity="0.55"/><circle cx="654" cy="490" r="2" fill="#00e857" opacity="0.55"/><circle cx="563" cy="338" r="2" fill="#da9ed9" opacity="0.55"/><circle cx="653" cy="597" r="1" fill="#146e59" opacity="0.55"/><circle cx="430" cy="516" r="1" fill="#575485" opacity="0.55"/><circle cx="401" cy="592" r="2" fill="#519377" opacity="0.55"/><circle cx="251" cy="335" r="2" fill="#9a760f" opacity="0.55"/><circle cx="405" cy="580" r="2" fill="#51ff89" opacity="0.55"/><circle cx="651" cy="652" r="1" fill="#1c2bcb" opacity="0.55"/><circle cx="606" cy="544" r="2" fill="#0ea67a" opacity="0.55"/><circle cx="615" cy="678" r="2" fill="#231722" opacity="0.55"/><circle cx="559" cy="305" r="2" fill="#d63590" opacity="0.55"/><circle cx="453" cy="512" r="2" fill="#3b4baa" opacity="0.55"/><circle cx="408" cy="559" r="1" fill="#54f1ae" opacity="0.55"/><circle cx="434" cy="571" r="1" fill="#476505" opacity="0.55"/><circle cx="243" cy="481" r="1" fill="#80d7a2" opacity="0.55"/><circle cx="463" cy="439" r="1" fill="#cb47be" opacity="0.55"/><circle cx="586" cy="386" r="1" fill="#e6758d" opacity="0.55"/><circle cx="415" cy="348" r="2" fill="#b6258c" opacity="0.55"/><circle cx="246" cy="382" r="2" fill="#9331ef" opacity="0.55"/><circle cx="599" cy="576" r="2" fill="#162e43" opacity="0.55"/><circle cx="468" cy="508" r="2" fill="#2361d0" opacity="0.55"/><circle cx="455" cy="488" r="1" fill="#10c400" opacity="0.55"/><circle cx="415" cy="559" r="1" fill="#520c2a" opacity="0.55"/><circle cx="572" cy="525" r="2" fill="#0ca340" opacity="0.55"/><circle cx="441" cy="783" r="1" fill="#411f25" opacity="0.55"/><circle cx="612" cy="536" r="2" fill="#0c4468" opacity="0.55"/><circle cx="177" cy="595" r="1" fill="#7063a8" opacity="0.55"/><circle cx="444" cy="481" r="1" fill="#9e06a9" opacity="0.55"/><circle cx="378" cy="503" r="1" fill="#764ae5" opacity="0.55"/><circle cx="604" cy="370" r="2" fill="#e5d2ed" opacity="0.55"/><circle cx="624" cy="526" r="2" fill="#095dfe" opacity="0.55"/><circle cx="282" cy="311" r="1" fill="#a0c047" opacity="0.55"/><circle cx="450" cy="488" r="2" fill="#3c2d70" opacity="0.55"/><circle cx="478" cy="385" r="2" fill="#cb5419" opacity="0.55"/><circle cx="415" cy="469" r="1" fill="#920602" opacity="0.55"/><circle cx="732" cy="408" r="2" fill="#f50f12" opacity="0.55"/><circle cx="503" cy="289" r="2" fill="#cac632" opacity="0.55"/><circle cx="567" cy="603" r="2" fill="#201eeb" opacity="0.55"/><circle cx="375" cy="514" r="2" fill="#7118e6" opacity="0.55"/><circle cx="213" cy="609" r="2" fill="#6c6836" opacity="0.55"/><circle cx="287" cy="499" r="2" fill="#7c9e1c" opacity="0.55"/><circle cx="601" cy="236" r="1" fill="#d6285d" opacity="0.55"/><circle cx="664" cy="627" r="2" fill="#17b6cb" opacity="0.55"/><circle cx="315" cy="332" r="2" fill="#a2b532" opacity="0.55"/><circle cx="499" cy="386" r="2" fill="#d2ad8a" opacity="0.55"/><circle cx="447" cy="198" r="2" fill="#bf996f" opacity="0.55"/><circle cx="418" cy="529" r="2" fill="#59c3e4" opacity="0.55"/><circle cx="247" cy="397" r="2" fill="#90c37e" opacity="0.55"/><circle cx="255" cy="406" r="1" fill="#8fc558" opacity="0.55"/><circle cx="274" cy="522" r="2" fill="#779e56" opacity="0.55"/><circle cx="398" cy="537" r="1" fill="#5fde4f" opacity="0.55"/><circle cx="582" cy="610" r="2" fill="#1ebc7b" opacity="0.55"/><circle cx="412" cy="485" r="2" fill="#80c4ab" opacity="0.55"/><circle cx="593" cy="537" r="1" fill="#0e031c" opacity="0.55"/><circle cx="454" cy="375" r="2" fill="#c19bc2" opacity="0.55"/><circle cx="387" cy="674" r="2" fill="#4d1257" opacity="0.55"/><circle cx="252" cy="277" r="1" fill="#a10f5c" opacity="0.55"/><circle cx="698" cy="500" r="2" fill="#0250a5" opacity="0.55"/><circle cx="527" cy="429" r="2" fill="#e651c1" opacity="0.55"/><circle cx="445" cy="600" r="2" fill="#41ac52" opacity="0.55"/><circle cx="390" cy="458" r="2" fill="#91b6bf" opacity="0.55"/><circle cx="375" cy="518" r="2" fill="#6efc50" opacity="0.55"/><circle cx="444" cy="506" r="2" fill="#4a4abc" opacity="0.55"/><circle cx="436" cy="453" r="2" fill="#afd0aa" opacity="0.55"/><circle cx="586" cy="563" r="1" fill="#15062f" opacity="0.55"/><circle cx="644" cy="302" r="1" fill="#e12a81" opacity="0.55"/><circle cx="372" cy="487" r="1" fill="#7f714f" opacity="0.55"/><circle cx="468" cy="448" r="1" fill="#d2793a" opacity="0.55"/><circle cx="487" cy="489" r="1" fill="#03e6d0" opacity="0.55"/><circle cx="299" cy="733" r="2" fill="#5642e0" opacity="0.55"/><circle cx="711" cy="568" r="1" fill="#0c6323" opacity="0.55"/><circle cx="603" cy="518" r="2" fill="#089d9f" opacity="0.55"/><circle cx="522" cy="549" r="2" fill="#1d53ae" opacity="0.55"/><circle cx="328" cy="502" r="2" fill="#7a5b2d" opacity="0.55"/><circle cx="464" cy="575" r="1" fill="#399963" opacity="0.55"/><circle cx="416" cy="597" r="1" fill="#4bd8c2" opacity="0.55"/><circle cx="485" cy="503" r="1" fill="#12bb3a" opacity="0.55"/><circle cx="420" cy="357" r="1" fill="#b6b278" opacity="0.55"/><circle cx="520" cy="392" r="1" fill="#da8ee8" opacity="0.55"/><circle cx="496" cy="493" r="1" fill="#0661be" opacity="0.55"/><circle cx="445" cy="484" r="2" fill="#8dd5e1" opacity="0.55"/><circle cx="376" cy="446" r="2" fill="#942388" opacity="0.55"/><circle cx="550" cy="268" r="1" fill="#d1b092" opacity="0.55"/><circle cx="503" cy="510" r="1" fill="#11ad61" opacity="0.55"/><circle cx="312" cy="512" r="1" fill="#783966" opacity="0.55"/><circle cx="404" cy="416" r="2" fill="#a8652a" opacity="0.55"/><circle cx="372" cy="429" r="2" fill="#99cd89" opacity="0.55"/><circle cx="409" cy="246" r="1" fill="#b91ddd" opacity="0.55"/><circle cx="488" cy="575" r="2" fill="#2f5989" opacity="0.55"/><circle cx="399" cy="448" r="1" fill="#99c5bf" opacity="0.55"/><circle cx="647" cy="471" r="1" fill="#fcfa0c" opacity="0.55"/><circle cx="485" cy="381" r="2" fill="#cd53af" opacity="0.55"/><circle cx="529" cy="378" r="1" fill="#d9feb1" opacity="0.55"/><circle cx="450" cy="612" r="2" fill="#3fd678" opacity="0.55"/><circle cx="520" cy="309" r="1" fill="#cf7bda" opacity="0.55"/><circle cx="624" cy="567" r="2" fill="#11cf69" opacity="0.55"/><circle cx="481" cy="506" r="1" fill="#176f02" opacity="0.55"/><circle cx="507" cy="461" r="1" fill="#ef9ee4" opacity="0.55"/><circle cx="654" cy="617" r="1" fill="#175221" opacity="0.55"/><circle cx="227" cy="583" r="2" fill="#6f22f0" opacity="0.55"/><circle cx="471" cy="584" r="1" fill="#37729c" opacity="0.55"/><circle cx="723" cy="500" r="2" fill="#023849" opacity="0.55"/><circle cx="701" cy="457" r="2" fill="#fb750f" opacity="0.55"/><circle cx="442" cy="479" r="1" fill="#9b66bc" opacity="0.55"/><circle cx="367" cy="672" r="1" fill="#50fcc8" opacity="0.55"/><circle cx="475" cy="575" r="1" fill="#34d7ae" opacity="0.55"/><circle cx="365" cy="269" r="1" fill="#b0d7dc" opacity="0.55"/><circle cx="544" cy="603" r="2" fill="#245167" opacity="0.55"/><circle cx="556" cy="497" r="2" fill="#048c2c" opacity="0.55"/><circle cx="308" cy="574" r="2" fill="#691d8d" opacity="0.55"/><circle cx="461" cy="514" r="2" fill="#310ad0" opacity="0.55"/><circle cx="458" cy="538" r="1" fill="#396a4e" opacity="0.55"/><circle cx="201" cy="622" r="2" fill="#6b87a7" opacity="0.55"/><circle cx="414" cy="509" r="2" fill="#67e402" opacity="0.55"/><circle cx="305" cy="283" r="1" fill="#a6b322" opacity="0.55"/><circle cx="572" cy="684" r="1" fill="#29636c" opacity="0.55"/><circle cx="297" cy="477" r="1" fill="#8239fd" opacity="0.55"/><circle cx="422" cy="332" r="1" fill="#b8e8ea" opacity="0.55"/><circle cx="504" cy="394" r="1" fill="#d5e13e" opacity="0.55"/><circle cx="473" cy="370" r="2" fill="#c831d5" opacity="0.55"/><circle cx="401" cy="511" r="2" fill="#6c0516" opacity="0.55"/><circle cx="556" cy="537" r="2" fill="#125e3f" opacity="0.55"/><circle cx="300" cy="457" r="1" fill="#8791b2" opacity="0.55"/><circle cx="423" cy="518" r="2" fill="#5bd0ab" opacity="0.55"/><circle cx="677" cy="382" r="2" fill="#eea222" opacity="0.55"/><circle cx="592" cy="567" r="2" fill="#152eeb" opacity="0.55"/><circle cx="335" cy="294" r="1" fill="#aa1846" opacity="0.55"/><circle cx="655" cy="666" r="2" fill="#1d6281" opacity="0.55"/><circle cx="473" cy="359" r="2" fill="#c77ffb" opacity="0.55"/><circle cx="284" cy="467" r="2" fill="#84810a" opacity="0.55"/><circle cx="290" cy="724" r="1" fill="#580bf2" opacity="0.55"/><circle cx="498" cy="359" r="2" fill="#cef1b1" opacity="0.55"/><circle cx="503" cy="541" r="1" fill="#207dd3" opacity="0.55"/><circle cx="460" cy="485" r="1" fill="#ff4e13" opacity="0.55"/><circle cx="438" cy="399" r="2" fill="#ba69c0" opacity="0.55"/><circle cx="445" cy="346" r="2" fill="#bed2d7" opacity="0.55"/><circle cx="429" cy="515" r="2" fill="#581aab" opacity="0.55"/><circle cx="477" cy="508" r="2" fill="#1bdcd0" opacity="0.55"/><circle cx="359" cy="402" r="1" fill="#9e4e1a" opacity="0.55"/><circle cx="352" cy="410" r="2" fill="#9ae79d" opacity="0.55"/><circle cx="359" cy="727" r="2" fill="#4eaf5b" opacity="0.55"/><circle cx="554" cy="496" r="2" fill="#041277" opacity="0.55"/><circle cx="516" cy="368" r="1" fill="#d4e2e9" opacity="0.55"/><circle cx="473" cy="426" r="2" fill="#cf1204" opacity="0.55"/><circle cx="442" cy="358" r="2" fill="#bd8240" opacity="0.55"/><circle cx="681" cy="352" r="2" fill="#eab95b" opacity="0.55"/><circle cx="383" cy="272" r="2" fill="#b3c5b6" opacity="0.55"/><circle cx="293" cy="391" r="1" fill="#961843" opacity="0.55"/><circle cx="435" cy="697" r="1" fill="#42e232" opacity="0.55"/><circle cx="426" cy="637" r="2" fill="#4668d7" opacity="0.55"/><circle cx="363" cy="496" r="2" fill="#7b38f9" opacity="0.55"/><circle cx="429" cy="335" r="2" fill="#ba939f" opacity="0.55"/><circle cx="602" cy="306" r="2" fill="#dcaa34" opacity="0.55"/><circle cx="457" cy="493" r="2" fill="#1fbba9" opacity="0.55"/><circle cx="439" cy="488" r="1" fill="#77e6ce" opacity="0.55"/><circle cx="657" cy="583" r="1" fill="#11fdb7" opacity="0.55"/><circle cx="546" cy="402" r="2" fill="#e2f19e" opacity="0.55"/><circle cx="195" cy="589" r="1" fill="#703f49" opacity="0.55"/><circle cx="360" cy="517" r="1" fill="#72693e" opacity="0.55"/><circle cx="563" cy="412" r="2" fill="#e87b1b" opacity="0.55"/><circle cx="235" cy="649" r="2" fill="#656aa6" opacity="0.55"/><circle cx="391" cy="291" r="2" fill="#b41f0c" opacity="0.55"/><circle cx="417" cy="376" r="1" fill="#b41c3f" opacity="0.55"/><circle cx="424" cy="436" r="1" fill="#aca0bf" opacity="0.55"/><circle cx="456" cy="575" r="2" fill="#3cf263" opacity="0.55"/><circle cx="326" cy="501" r="2" fill="#7af907" opacity="0.55"/><circle cx="609" cy="507" r="2" fill="#058bd8" opacity="0.55"/><circle cx="464" cy="500" r="1" fill="#206826" opacity="0.55"/><circle cx="448" cy="495" r="1" fill="#46b65e" opacity="0.55"/><circle cx="214" cy="516" r="1" fill="#7ad234" opacity="0.55"/><circle cx="536" cy="251" r="2" fill="#ce6e80" opacity="0.55"/><circle cx="212" cy="362" r="2" fill="#938df1" opacity="0.55"/><circle cx="362" cy="525" r="2" fill="#6eb22b" opacity="0.55"/><circle cx="624" cy="456" r="2" fill="#f92b1d" opacity="0.55"/><circle cx="584" cy="694" r="2" fill="#28ac80" opacity="0.55"/><circle cx="364" cy="584" r="1" fill="#5d31d6" opacity="0.55"/><circle cx="243" cy="582" r="1" fill="#6e32a4" opacity="0.55"/><circle cx="251" cy="648" r="2" fill="#6412cb" opacity="0.55"/><circle cx="629" cy="448" r="2" fill="#f77ea1" opacity="0.55"/><circle cx="455" cy="499" r="2" fill="#30abcf" opacity="0.55"/><circle cx="479" cy="467" r="1" fill="#e96e5f" opacity="0.55"/><circle cx="468" cy="513" r="2" fill="#2789bd" opacity="0.55"/><circle cx="535" cy="511" r="2" fill="#0bf12b" opacity="0.55"/><circle cx="307" cy="416" r="2" fill="#927742" opacity="0.55"/><circle cx="385" cy="634" r="2" fill="#50d1d8" opacity="0.55"/><circle cx="273" cy="639" r="2" fill="#62ea46" opacity="0.55"/><circle cx="547" cy="478" r="1" fill="#fcb963" opacity="0.55"/><circle cx="174" cy="436" r="1" fill="#874949" opacity="0.55"/><circle cx="449" cy="498" r="1" fill="#4036bc" opacity="0.55"/><circle cx="339" cy="225" r="2" fill="#afa15c" opacity="0.55"/><circle cx="484" cy="544" r="2" fill="#2a493c" opacity="0.55"/><circle cx="413" cy="490" r="1" fill="#7b0685" opacity="0.55"/><circle cx="215" cy="461" r="1" fill="#8431b7" opacity="0.55"/><circle cx="478" cy="530" r="1" fill="#290173" opacity="0.55"/><circle cx="411" cy="595" r="2" fill="#4defe8" opacity="0.55"/><circle cx="385" cy="437" r="1" fill="#9a72ad" opacity="0.55"/><circle cx="518" cy="622" r="2" fill="#2d087a" opacity="0.55"/><circle cx="158" cy="419" r="2" fill="#8933a8" opacity="0.55"/><circle cx="640" cy="296" r="2" fill="#e01bf1" opacity="0.55"/><circle cx="593" cy="446" r="1" fill="#f529ea" opacity="0.55"/><circle cx="413" cy="457" r="2" fill="#9b4ef6" opacity="0.55"/><circle cx="496" cy="421" r="1" fill="#d9733d" opacity="0.55"/><circle cx="501" cy="281" r="1" fill="#c9ffb5" opacity="0.55"/><circle cx="414" cy="774" r="1" fill="#44f14a" opacity="0.55"/><circle cx="597" cy="275" r="2" fill="#d8d2b8" opacity="0.55"/><circle cx="508" cy="690" r="2" fill="#34c020" opacity="0.55"/><circle cx="679" cy="488" r="2" fill="#006221" opacity="0.55"/><circle cx="567" cy="585" r="2" fill="#1c902f" opacity="0.55"/><circle cx="437" cy="304" r="2" fill="#bd311e" opacity="0.55"/><circle cx="182" cy="551" r="1" fill="#764036" opacity="0.55"/><circle cx="450" cy="486" r="2" fill="#07b14b" opacity="0.55"/><circle cx="540" cy="641" r="2" fill="#2aa27b" opacity="0.55"/><circle cx="475" cy="507" r="1" fill="#1c86aa" opacity="0.55"/><circle cx="197" cy="535" r="2" fill="#7814f1" opacity="0.55"/><circle cx="724" cy="421" r="2" fill="#f6a96f" opacity="0.55"/><circle cx="366" cy="593" r="1" fill="#5adc53" opacity="0.55"/><circle cx="454" cy="355" r="2" fill="#c154b0" opacity="0.55"/><circle cx="429" cy="531" r="2" fill="#515586" opacity="0.55"/><circle cx="444" cy="430" r="1" fill="#bc12f7" opacity="0.55"/><circle cx="416" cy="572" r="2" fill="#4f2de6" opacity="0.55"/><circle cx="517" cy="456" r="1" fill="#ef189a" opacity="0.55"/><circle cx="452" cy="559" r="2" fill="#3e5e17" opacity="0.55"/><circle cx="741" cy="517" r="2" fill="#0467a8" opacity="0.55"/><circle cx="328" cy="465" r="2" fill="#86ec9d" opacity="0.55"/><circle cx="239" cy="509" r="2" fill="#7b6290" opacity="0.55"/><circle cx="194" cy="528" r="1" fill="#79485b" opacity="0.55"/><circle cx="450" cy="476" r="1" fill="#c1ad96" opacity="0.55"/><circle cx="406" cy="616" r="1" fill="#4d0508" opacity="0.55"/><circle cx="499" cy="717" r="1" fill="#37827f" opacity="0.55"/><circle cx="487" cy="580" r="1" fill="#30b1fa" opacity="0.55"/><circle cx="613" cy="438" r="2" fill="#f47eb3" opacity="0.55"/><circle cx="666" cy="682" r="2" fill="#1e0a82" opacity="0.55"/><circle cx="693" cy="625" r="2" fill="#1527ba" opacity="0.55"/><circle cx="408" cy="417" r="2" fill="#a9bb17" opacity="0.55"/><circle cx="338" cy="313" r="2" fill="#a8a490" opacity="0.55"/><circle cx="414" cy="461" r="2" fill="#98a4e3" opacity="0.55"/><circle cx="450" cy="479" r="2" fill="#c32825" opacity="0.55"/><circle cx="334" cy="428" r="1" fill="#92b28b" opacity="0.55"/><circle cx="388" cy="523" r="1" fill="#696fad" opacity="0.55"/><circle cx="636" cy="275" r="2" fill="#dd8e49" opacity="0.55"/><circle cx="507" cy="466" r="2" fill="#f2fa74" opacity="0.55"/><circle cx="460" cy="466" r="1" fill="#d48d97" opacity="0.55"/><circle cx="301" cy="465" r="2" fill="#85b5c4" opacity="0.55"/><circle cx="410" cy="355" r="2" fill="#b40ab1" opacity="0.55"/><circle cx="492" cy="743" r="2" fill="#394693" opacity="0.55"/><circle cx="294" cy="492" r="2" fill="#7e6567" opacity="0.55"/><circle cx="448" cy="471" r="1" fill="#ba9f13" opacity="0.55"/><circle cx="449" cy="604" r="2" fill="#4003b0" opacity="0.55"/><circle cx="464" cy="469" r="1" fill="#dd1197" opacity="0.55"/><circle cx="453" cy="488" r="1" fill="#1bf338" opacity="0.55"/><circle cx="381" cy="531" r="2" fill="#683805" opacity="0.55"/><circle cx="351" cy="537" r="1" fill="#6c58e7" opacity="0.55"/><circle cx="455" cy="490" r="1" fill="#1f11a9" opacity="0.55"/><circle cx="519" cy="466" r="1" fill="#f4ee17" opacity="0.55"/><circle cx="390" cy="450" r="1" fill="#961017" opacity="0.55"/><circle cx="531" cy="522" r="2" fill="#11002b" opacity="0.55"/><circle cx="366" cy="649" r="2" fill="#533030" opacity="0.55"/><circle cx="626" cy="556" r="1" fill="#0f69b4" opacity="0.55"/><circle cx="445" cy="529" r="2" fill="#4401e3" opacity="0.55"/><circle cx="332" cy="320" r="2" fill="#a6f6ed" opacity="0.55"/><circle cx="486" cy="481" r="1" fill="#fb18d0" opacity="0.55"/><circle cx="502" cy="488" r="2" fill="#01b128" opacity="0.55"/><circle cx="717" cy="447" r="1" fill="#fa1910" opacity="0.55"/><circle cx="295" cy="374" r="2" fill="#99737c" opacity="0.55"/><circle cx="418" cy="350" r="2" fill="#b6b4c4" opacity="0.55"/><circle cx="361" cy="233" r="2" fill="#b24ccc" opacity="0.55"/><circle cx="605" cy="570" r="1" fill="#1465d9" opacity="0.55"/><circle cx="570" cy="450" r="1" fill="#f475c3" opacity="0.55"/><circle cx="179" cy="394" r="2" fill="#8d4395" opacity="0.55"/><circle cx="199" cy="420" r="2" fill="#8a63de" opacity="0.55"/><circle cx="313" cy="522" r="2" fill="#7573fc" opacity="0.55"/><circle cx="318" cy="683" r="2" fill="#57df6c" opacity="0.55"/><circle cx="375" cy="416" r="2" fill="#9ed089" opacity="0.55"/><circle cx="424" cy="382" r="1" fill="#b616fa" opacity="0.55"/><circle cx="419" cy="631" r="1" fill="#485f2e" opacity="0.55"/><circle cx="627" cy="426" r="1" fill="#f2d031" opacity="0.55"/><circle cx="404" cy="524" r="1" fill="#6388ac" opacity="0.55"/><circle cx="440" cy="501" r="1" fill="#57d0bc" opacity="0.55"/><circle cx="503" cy="320" r="2" fill="#ccd0d9" opacity="0.55"/><circle cx="477" cy="398" r="1" fill="#cc85e6" opacity="0.55"/><circle cx="453" cy="519" r="2" fill="#3c504d" opacity="0.55"/><circle cx="491" cy="505" r="1" fill="#117a3b" opacity="0.55"/><circle cx="686" cy="600" r="2" fill="#1250de" opacity="0.55"/><circle cx="482" cy="480" r="2" fill="#f88f3a" opacity="0.55"/><circle cx="523" cy="570" r="1" fill="#22e552" opacity="0.55"/><circle cx="319" cy="480" r="2" fill="#81d165" opacity="0.55"/><circle cx="478" cy="308" r="2" fill="#c65eec" opacity="0.55"/><circle cx="490" cy="385" r="1" fill="#cfa5fa" opacity="0.55"/><circle cx="336" cy="494" r="1" fill="#7ccac2" opacity="0.55"/><circle cx="441" cy="530" r="1" fill="#48204d" opacity="0.55"/><circle cx="618" cy="582" r="2" fill="#152aed" opacity="0.55"/><circle cx="545" cy="731" r="2" fill="#30dc6e" opacity="0.55"/><circle cx="598" cy="360" r="1" fill="#e3631e" opacity="0.55"/><circle cx="450" cy="491" r="2" fill="#3d2f4b" opacity="0.55"/><circle cx="427" cy="305" r="2" fill="#bb0fc6" opacity="0.55"/><circle cx="712" cy="590" r="2" fill="#0f6c82" opacity="0.55"/><circle cx="158" cy="484" r="2" fill="#80394a" opacity="0.55"/><circle cx="591" cy="526" r="1" fill="#0b779f" opacity="0.55"/><circle cx="503" cy="435" r="2" fill="#e125ad" opacity="0.55"/><circle cx="289" cy="418" r="2" fill="#905068" opacity="0.55"/><circle cx="215" cy="646" r="2" fill="#678e82" opacity="0.55"/><circle cx="465" cy="411" r="1" fill="#c865ad" opacity="0.55"/><circle cx="487" cy="566" r="2" fill="#2e6476" opacity="0.55"/><circle cx="426" cy="496" r="2" fill="#6f6f72" opacity="0.55"/><circle cx="677" cy="531" r="2" fill="#080eef" opacity="0.55"/><circle cx="597" cy="507" r="1" fill="#05c72e" opacity="0.55"/><circle cx="498" cy="391" r="2" fill="#d32ffa" opacity="0.55"/><circle cx="463" cy="523" r="2" fill="#317cf6" opacity="0.55"/><circle cx="484" cy="437" r="2" fill="#d93c87" opacity="0.55"/><circle cx="483" cy="384" r="2" fill="#cd0806" opacity="0.55"/><circle cx="632" cy="698" r="1" fill="#232182" opacity="0.55"/><circle cx="247" cy="479" r="1" fill="#81438f" opacity="0.55"/><circle cx="166" cy="491" r="1" fill="#7f3095" opacity="0.55"/><circle cx="453" cy="515" r="2" fill="#3adcbd" opacity="0.55"/><circle cx="225" cy="612" r="2" fill="#6b256d" opacity="0.55"/><circle cx="449" cy="482" r="1" fill="#ba155e" opacity="0.55"/><circle cx="454" cy="326" r="2" fill="#c129a0" opacity="0.55"/><circle cx="408" cy="514" r="1" fill="#675fd1" opacity="0.55"/><circle cx="482" cy="521" r="2" fill="#21e0ab" opacity="0.55"/><circle cx="683" cy="543" r="2" fill="#09e0f0" opacity="0.55"/><circle cx="273" cy="689" r="2" fill="#5d206e" opacity="0.55"/><circle cx="471" cy="757" r="1" fill="#3cd7f2" opacity="0.55"/><circle cx="451" cy="487" r="1" fill="#1a6883" opacity="0.55"/><circle cx="478" cy="475" r="1" fill="#f11901" opacity="0.55"/><circle cx="464" cy="545" r="2" fill="#3670d2" opacity="0.55"/><circle cx="493" cy="289" r="1" fill="#c8e232" opacity="0.55"/><circle cx="577" cy="430" r="1" fill="#ef4cd6" opacity="0.55"/><circle cx="569" cy="555" r="1" fill="#15748b" opacity="0.55"/><circle cx="589" cy="488" r="2" fill="#009653" opacity="0.55"/><circle cx="409" cy="405" r="2" fill="#acf663" opacity="0.55"/><circle cx="602" cy="263" r="2" fill="#d885b9" opacity="0.55"/><circle cx="470" cy="503" r="2" fill="#1c98e2" opacity="0.55"/><circle cx="584" cy="545" r="2" fill="#11071b" opacity="0.55"/><circle cx="672" cy="288" r="1" fill="#e267e0" opacity="0.55"/><circle cx="443" cy="459" r="1" fill="#b61c84" opacity="0.55"/><circle cx="556" cy="428" r="2" fill="#ebde65" opacity="0.55"/><circle cx="404" cy="481" r="2" fill="#842015" opacity="0.55"/><circle cx="580" cy="646" r="1" fill="#242b7d" opacity="0.55"/><circle cx="376" cy="380" r="2" fill="#a738e9" opacity="0.55"/><circle cx="513" cy="574" r="1" fill="#267baf" opacity="0.55"/><circle cx="678" cy="349" r="1" fill="#ea1810" opacity="0.55"/><circle cx="453" cy="469" r="2" fill="#c959cf" opacity="0.55"/><circle cx="461" cy="492" r="2" fill="#14aa4b" opacity="0.55"/><circle cx="307" cy="388" r="1" fill="#98601d" opacity="0.55"/><circle cx="341" cy="566" r="1" fill="#66041b" opacity="0.55"/><circle cx="315" cy="234" r="2" fill="#abf395" opacity="0.55"/><circle cx="677" cy="528" r="1" fill="#07976c" opacity="0.55"/><circle cx="565" cy="357" r="2" fill="#dde88e" opacity="0.55"/><circle cx="356" cy="586" r="2" fill="#5e95fc" opacity="0.55"/><circle cx="489" cy="428" r="2" fill="#d8709a" opacity="0.55"/><circle cx="450" cy="486" r="2" fill="#a01c5d" opacity="0.55"/><circle cx="472" cy="404" r="2" fill="#caecf9" opacity="0.55"/><circle cx="246" cy="457" r="2" fill="#85ab90" opacity="0.55"/><circle cx="590" cy="484" r="1" fill="#ff7608" opacity="0.55"/><circle cx="537" cy="556" r="1" fill="#1b9a9d" opacity="0.55"/><circle cx="420" cy="359" r="2" fill="#b69b40" opacity="0.55"/><circle cx="361" cy="422" r="1" fill="#99683f" opacity="0.55"/><circle cx="455" cy="495" r="2" fill="#29cb00" opacity="0.55"/><circle cx="551" cy="544" r="1" fill="#156607" opacity="0.55"/><circle cx="455" cy="514" r="1" fill="#37ed72" opacity="0.55"/><circle cx="484" cy="432" r="2" fill="#d75c29" opacity="0.55"/><circle cx="679" cy="361" r="2" fill="#ebc9de" opacity="0.55"/><circle cx="653" cy="404" r="1" fill="#f07090" opacity="0.55"/><circle cx="389" cy="515" r="2" fill="#6d42f7" opacity="0.55"/><circle cx="243" cy="549" r="1" fill="#73c9c9" opacity="0.55"/><circle cx="550" cy="365" r="1" fill="#dc372f" opacity="0.55"/><circle cx="447" cy="317" r="2" fill="#bf508d" opacity="0.55"/><circle cx="559" cy="209" r="2" fill="#cf614a" opacity="0.55"/><circle cx="627" cy="433" r="2" fill="#f45169" opacity="0.55"/><circle cx="535" cy="633" r="2" fill="#2aa1fe" opacity="0.55"/><circle cx="581" cy="585" r="2" fill="#1a722f" opacity="0.55"/><circle cx="481" cy="549" r="1" fill="#2cfe62" opacity="0.55"/><circle cx="536" cy="495" r="1" fill="#04a39b" opacity="0.55"/><circle cx="651" cy="524" r="1" fill="#07c91f" opacity="0.55"/><circle cx="386" cy="454" r="2" fill="#928ead" opacity="0.55"/><circle cx="538" cy="429" r="2" fill="#e8e99c" opacity="0.55"/><circle cx="153" cy="481" r="2" fill="#809612" opacity="0.55"/><circle cx="548" cy="465" r="2" fill="#f798af" opacity="0.55"/><circle cx="414" cy="501" r="2" fill="#6fe415" opacity="0.55"/><circle cx="453" cy="349" r="1" fill="#c0f179" opacity="0.55"/><circle cx="440" cy="495" r="2" fill="#6032f4" opacity="0.55"/><circle cx="659" cy="526" r="1" fill="#07b3c8" opacity="0.55"/><circle cx="589" cy="347" r="2" fill="#e018b5" opacity="0.55"/><circle cx="503" cy="581" r="2" fill="#2b3406" opacity="0.55"/><circle cx="394" cy="471" r="1" fill="#8a8a3b" opacity="0.55"/><circle cx="587" cy="733" r="2" fill="#2b57f2" opacity="0.55"/><circle cx="562" cy="281" r="2" fill="#d476ef" opacity="0.55"/><circle cx="422" cy="426" r="2" fill="#ae72f7" opacity="0.55"/><circle cx="439" cy="194" r="2" fill="#be8be0" opacity="0.55"/><circle cx="390" cy="397" r="1" fill="#a7ee89" opacity="0.55"/><circle cx="337" cy="404" r="2" fill="#9996e9" opacity="0.55"/><circle cx="409" cy="196" r="1" fill="#ba63cd" opacity="0.55"/><circle cx="389" cy="544" r="1" fill="#60c09b" opacity="0.55"/><circle cx="195" cy="491" r="1" fill="#7f2f80" opacity="0.55"/><circle cx="543" cy="531" r="2" fill="#124daf" opacity="0.55"/><circle cx="517" cy="421" r="1" fill="#e102e6" opacity="0.55"/><circle cx="482" cy="372" r="2" fill="#cb75e8" opacity="0.55"/><circle cx="429" cy="251" r="2" fill="#bc6e21" opacity="0.55"/><circle cx="456" cy="564" r="2" fill="#3ca5ad" opacity="0.55"/><circle cx="281" cy="567" r="2" fill="#6db3a1" opacity="0.55"/><circle cx="443" cy="508" r="1" fill="#4c085f" opacity="0.55"/><circle cx="424" cy="374" r="2" fill="#b6aad5" opacity="0.55"/><circle cx="265" cy="267" r="2" fill="#a37ccd" opacity="0.55"/><circle cx="328" cy="308" r="2" fill="#a77745" opacity="0.55"/><circle cx="500" cy="645" r="1" fill="#33932f" opacity="0.55"/><circle cx="510" cy="772" r="2" fill="#378f25" opacity="0.55"/><circle cx="639" cy="666" r="2" fill="#1f0410" opacity="0.55"/><circle cx="189" cy="513" r="2" fill="#7bc9b9" opacity="0.55"/><circle cx="496" cy="582" r="1" fill="#2d792c" opacity="0.55"/><circle cx="288" cy="682" r="1" fill="#5c0acb" opacity="0.55"/><circle cx="458" cy="485" r="2" fill="#fc5ace" opacity="0.55"/><circle cx="308" cy="441" r="2" fill="#8c4f09" opacity="0.55"/><circle cx="500" cy="410" r="2" fill="#d82ee6" opacity="0.55"/><circle cx="431" cy="414" r="2" fill="#b5fac0" opacity="0.55"/><circle cx="451" cy="487" r="1" fill="#25f9bb" opacity="0.55"/><circle cx="344" cy="461" r="2" fill="#8942d5" opacity="0.55"/><circle cx="290" cy="542" r="2" fill="#7239a0" opacity="0.55"/><circle cx="335" cy="496" r="2" fill="#7c30fa" opacity="0.55"/><circle cx="211" cy="630" r="1" fill="#69d7ba" opacity="0.55"/><circle cx="276" cy="380" r="2" fill="#962944" opacity="0.55"/><circle cx="380" cy="446" r="2" fill="#94c550" opacity="0.55"/><circle cx="698" cy="457" r="1" fill="#fb5a47" opacity="0.55"/><circle cx="350" cy="541" r="1" fill="#6b5752" opacity="0.55"/><circle cx="424" cy="353" r="2" fill="#b86266" opacity="0.55"/><circle cx="570" cy="515" r="1" fill="#09ca1a" opacity="0.55"/><circle cx="394" cy="436" r="1" fill="#9d86c0" opacity="0.55"/><circle cx="447" cy="485" r="2" fill="#87a9f3" opacity="0.55"/><circle cx="471" cy="424" r="2" fill="#cdd087" opacity="0.55"/><circle cx="473" cy="614" r="1" fill="#38a3e9" opacity="0.55"/><circle cx="278" cy="440" r="1" fill="#8a80c6" opacity="0.55"/><circle cx="549" cy="580" r="1" fill="#1efd08" opacity="0.55"/><circle cx="492" cy="201" r="2" fill="#c5ff37" opacity="0.55"/><circle cx="324" cy="523" r="1" fill="#742b9e" opacity="0.55"/><circle cx="484" cy="767" r="1" fill="#3afc5c" opacity="0.55"/><circle cx="450" cy="486" r="6" fill="#8467a9"/><text x="450" y="816" text-anchor="middle" fill="#cfe6d2" font-size="13">still the same moss - its light now #36322b</text>
<text x="900" y="144" fill="#9ab0a0" font-size="13">the moss across the ages (each jump one hash):</text><rect x="900" y="160" width="120" height="46" rx="4" fill="#9757fe" opacity="0.9"/><text x="1034" y="180" fill="#c9d6cc" font-size="13">year 10^0</text><text x="1034" y="198" fill="#6a8270" font-size="11">glow #9757fe - spread 1364397</text><rect x="900" y="230" width="120" height="46" rx="4" fill="#b10ded" opacity="0.9"/><text x="1034" y="250" fill="#c9d6cc" font-size="13">year 10^13</text><text x="1034" y="268" fill="#6a8270" font-size="11">glow #b10ded - spread 16380958</text><rect x="900" y="300" width="120" height="46" rx="4" fill="#b6031d" opacity="0.9"/><text x="1034" y="320" fill="#c9d6cc" font-size="13">year 10^50</text><text x="1034" y="338" fill="#6a8270" font-size="11">glow #b6031d - spread 10097428</text><rect x="900" y="370" width="120" height="46" rx="4" fill="#79a6f3" opacity="0.9"/><text x="1034" y="390" fill="#c9d6cc" font-size="13">year 10^100</text><text x="1034" y="408" fill="#6a8270" font-size="11">glow #79a6f3 - spread 12837261</text><rect x="900" y="440" width="120" height="46" rx="4" fill="#7ef855" opacity="0.9"/><text x="1034" y="460" fill="#c9d6cc" font-size="13">year 10^150</text><text x="1034" y="478" fill="#6a8270" font-size="11">glow #7ef855 - spread 5048674</text><rect x="900" y="510" width="120" height="46" rx="4" fill="#36322b" opacity="0.9"/><text x="1034" y="530" fill="#c9d6cc" font-size="13">year 10^200</text><text x="1034" y="548" fill="#6a8270" font-size="11">glow #36322b - spread 16504776</text><text x="40" y="860" fill="#9ab0a0" font-size="12">final at 10^200: glow #36322b - spread 16,504,776 - the surface transformed past all counting</text><text x="40" y="882" fill="#556a58" font-size="12">jumped by indexing, not grown by waiting - the root is the enduring identity, the glow is the surface - SYSTEM_AFFIRMED=0</text>
</svg>
